STARTFONT 2.1
FONT -Adobe-ITC Souvenir-Light-R-Normal--14-100-100-100-P-79-ISO8859-1
SIZE 10 100 100
FONTBOUNDINGBOX 16 17 -1 -3

STARTPROPERTIES 30
FOUNDRY "Adobe"
FAMILY_NAME "ITC Souvenir"
WEIGHT_NAME "Light"
SLANT "R"
SETWIDTH_NAME "Normal"
ADD_STYLE_NAME ""
PIXEL_SIZE 14
POINT_SIZE 100
RESOLUTION_X 100
RESOLUTION_Y 100
SPACING "P"
AVERAGE_WIDTH 79
CHARSET_REGISTRY "ISO8859"
CHARSET_ENCODING "1"
CAP_HEIGHT 11
X_HEIGHT 7
FACE_NAME "ITC Souvenir Light"
COPYRIGHT "Copyright (c) 1984, 1987 Adobe Systems Incorporated. All Rights Reserved. Copyright (c) 1988, 1991 Digital Equipment Corporation. All Rights Reserved."
NOTICE "ITC Souvenir is a registered trademark of International Typeface Corporation.  "
_DEC_DEVICE_FONTNAMES "PS=Souvenir-Light"
_DEC_PRODUCTINFO "DECwindows Fonts V2.2, 07-Nov-1991"
RELATIVE_SETWIDTH 50
RELATIVE_WEIGHT 30
CHARSET_COLLECTIONS "ASCII ISO8859-1 ADOBE-STANDARD"
FULL_NAME "ITC Souvenir Light"
WEIGHT 10
QUAD_WIDTH 9
DEFAULT_CHAR 32
FONT_DESCENT 3
FONT_ASCENT 13
ENDPROPERTIES

CHARS 191

STARTCHAR space
ENCODING 32
SWIDTH 300 0
DWIDTH 5 0
BBX 1 1 0 0
BITMAP
00
ENDCHAR

STARTCHAR exclam
ENCODING 33
SWIDTH 300 0
DWIDTH 4 0
BBX 1 11 2 0
BITMAP
80
80
80
80
80
80
80
80
00
80
80
ENDCHAR

STARTCHAR quotedbl
ENCODING 34
SWIDTH 360 0
DWIDTH 5 0
BBX 3 4 1 7
BITMAP
A0
A0
A0
A0
ENDCHAR

STARTCHAR numbersign
ENCODING 35
SWIDTH 640 0
DWIDTH 9 0
BBX 8 11 1 0
BITMAP
12
12
12
7F
24
24
24
FE
48
48
48
ENDCHAR

STARTCHAR dollar
ENCODING 36
SWIDTH 600 0
DWIDTH 9 0
BBX 7 13 1 -1
BITMAP
10
7C
92
92
90
50
38
14
12
92
92
7C
10
ENDCHAR

STARTCHAR percent
ENCODING 37
SWIDTH 820 0
DWIDTH 11 0
BBX 9 11 1 0
BITMAP
6100
9200
9200
9400
6400
0800
1300
1480
2480
2480
4300
ENDCHAR

STARTCHAR ampersand
ENCODING 38
SWIDTH 800 0
DWIDTH 11 0
BBX 10 11 1 0
BITMAP
3800
4400
4400
4400
2800
3380
5900
8A00
8400
8E40
7380
ENDCHAR

STARTCHAR quoteright
ENCODING 39
SWIDTH 280 0
DWIDTH 4 0
BBX 2 3 1 8
BITMAP
C0
40
80
ENDCHAR

STARTCHAR parenleft
ENCODING 40
SWIDTH 240 0
DWIDTH 4 0
BBX 3 14 0 -3
BITMAP
20
40
40
80
80
80
80
80
80
80
80
40
40
20
ENDCHAR

STARTCHAR parenright
ENCODING 41
SWIDTH 240 0
DWIDTH 4 0
BBX 3 14 1 -3
BITMAP
80
40
40
20
20
20
20
20
20
20
20
40
40
80
ENDCHAR

STARTCHAR asterisk
ENCODING 42
SWIDTH 360 0
DWIDTH 6 0
BBX 5 5 1 6
BITMAP
20
A8
70
A8
20
ENDCHAR

STARTCHAR plus
ENCODING 43
SWIDTH 660 0
DWIDTH 9 0
BBX 7 7 1 1
BITMAP
10
10
10
FE
10
10
10
ENDCHAR

STARTCHAR comma
ENCODING 44
SWIDTH 300 0
DWIDTH 5 0
BBX 2 4 1 -2
BITMAP
40
40
40
80
ENDCHAR

STARTCHAR minus
ENCODING 45
SWIDTH 660 0
DWIDTH 9 0
BBX 7 1 1 4
BITMAP
FE
ENDCHAR

STARTCHAR period
ENCODING 46
SWIDTH 300 0
DWIDTH 5 0
BBX 1 2 2 0
BITMAP
80
80
ENDCHAR

STARTCHAR slash
ENCODING 47
SWIDTH 520 0
DWIDTH 8 0
BBX 7 14 0 -3
BITMAP
02
02
04
04
08
08
10
10
20
20
40
40
80
80
ENDCHAR

STARTCHAR zero
ENCODING 48
SWIDTH 600 0
DWIDTH 9 0
BBX 6 11 2 0
BITMAP
78
84
84
84
84
84
84
84
84
84
78
ENDCHAR

STARTCHAR one
ENCODING 49
SWIDTH 600 0
DWIDTH 9 0
BBX 4 11 3 0
BITMAP
20
60
A0
20
20
20
20
20
20
20
70
ENDCHAR

STARTCHAR two
ENCODING 50
SWIDTH 600 0
DWIDTH 9 0
BBX 6 11 2 0
BITMAP
78
84
84
04
08
10
20
40
80
80
FC
ENDCHAR

STARTCHAR three
ENCODING 51
SWIDTH 600 0
DWIDTH 9 0
BBX 6 11 2 0
BITMAP
78
84
84
04
04
38
04
04
84
84
78
ENDCHAR

STARTCHAR four
ENCODING 52
SWIDTH 600 0
DWIDTH 9 0
BBX 7 11 1 0
BITMAP
04
0C
14
14
24
44
84
FE
04
04
04
ENDCHAR

STARTCHAR five
ENCODING 53
SWIDTH 600 0
DWIDTH 9 0
BBX 6 11 2 0
BITMAP
FC
80
80
80
F8
04
04
04
84
84
78
ENDCHAR

STARTCHAR six
ENCODING 54
SWIDTH 600 0
DWIDTH 9 0
BBX 6 11 2 0
BITMAP
38
40
80
80
80
B8
C4
84
84
84
78
ENDCHAR

STARTCHAR seven
ENCODING 55
SWIDTH 600 0
DWIDTH 9 0
BBX 6 11 2 0
BITMAP
FC
84
04
08
08
10
10
20
20
40
40
ENDCHAR

STARTCHAR eight
ENCODING 56
SWIDTH 600 0
DWIDTH 9 0
BBX 6 11 2 0
BITMAP
78
84
84
84
48
30
48
84
84
84
78
ENDCHAR

STARTCHAR nine
ENCODING 57
SWIDTH 600 0
DWIDTH 9 0
BBX 6 11 2 0
BITMAP
78
84
84
84
8C
74
04
04
04
08
70
ENDCHAR

STARTCHAR colon
ENCODING 58
SWIDTH 300 0
DWIDTH 5 0
BBX 1 7 2 0
BITMAP
80
80
00
00
00
80
80
ENDCHAR

STARTCHAR semicolon
ENCODING 59
SWIDTH 300 0
DWIDTH 5 0
BBX 2 9 1 -2
BITMAP
40
40
00
00
00
40
40
40
80
ENDCHAR

STARTCHAR less
ENCODING 60
SWIDTH 660 0
DWIDTH 9 0
BBX 7 7 1 1
BITMAP
02
0C
30
C0
30
0C
02
ENDCHAR

STARTCHAR equal
ENCODING 61
SWIDTH 660 0
DWIDTH 9 0
BBX 7 3 1 3
BITMAP
FE
00
FE
ENDCHAR

STARTCHAR greater
ENCODING 62
SWIDTH 660 0
DWIDTH 9 0
BBX 7 7 1 1
BITMAP
80
60
18
06
18
60
80
ENDCHAR

STARTCHAR question
ENCODING 63
SWIDTH 460 0
DWIDTH 7 0
BBX 6 11 1 0
BITMAP
78
84
84
04
0C
18
30
20
00
20
20
ENDCHAR

STARTCHAR at
ENCODING 64
SWIDTH 820 0
DWIDTH 12 0
BBX 11 12 1 -1
BITMAP
0F00
30C0
4020
46A0
8920
9120
9120
9340
8D80
4000
6080
1F00
ENDCHAR

STARTCHAR A
ENCODING 65
SWIDTH 720 0
DWIDTH 11 0
BBX 11 11 0 0
BITMAP
0400
0E00
0A00
1300
1100
2180
2080
3F80
40C0
4040
E0E0
ENDCHAR

STARTCHAR B
ENCODING 66
SWIDTH 680 0
DWIDTH 10 0
BBX 8 11 1 0
BITMAP
FC
46
42
42
44
7C
42
41
41
43
FE
ENDCHAR

STARTCHAR C
ENCODING 67
SWIDTH 720 0
DWIDTH 10 0
BBX 8 11 1 0
BITMAP
1C
63
41
80
80
80
80
80
41
63
1C
ENDCHAR

STARTCHAR D
ENCODING 68
SWIDTH 740 0
DWIDTH 10 0
BBX 8 11 1 0
BITMAP
F8
86
82
81
81
81
81
81
82
86
F8
ENDCHAR

STARTCHAR E
ENCODING 69
SWIDTH 600 0
DWIDTH 9 0
BBX 8 11 0 0
BITMAP
FF
41
40
40
40
7E
40
40
40
41
FF
ENDCHAR

STARTCHAR F
ENCODING 70
SWIDTH 560 0
DWIDTH 10 0
BBX 8 11 1 0
BITMAP
FF
41
40
40
40
7E
40
40
40
40
E0
ENDCHAR

STARTCHAR G
ENCODING 71
SWIDTH 760 0
DWIDTH 11 0
BBX 9 11 1 0
BITMAP
1F00
6180
4080
C000
8000
8000
8780
C080
4080
6180
1F00
ENDCHAR

STARTCHAR H
ENCODING 72
SWIDTH 800 0
DWIDTH 10 0
BBX 10 11 0 0
BITMAP
E1C0
4080
4080
4080
4080
7F80
4080
4080
4080
4080
E1C0
ENDCHAR

STARTCHAR I
ENCODING 73
SWIDTH 260 0
DWIDTH 5 0
BBX 3 11 1 0
BITMAP
E0
40
40
40
40
40
40
40
40
40
E0
ENDCHAR

STARTCHAR J
ENCODING 74
SWIDTH 480 0
DWIDTH 9 0
BBX 7 11 1 0
BITMAP
0E
04
04
04
04
04
04
C4
84
84
78
ENDCHAR

STARTCHAR K
ENCODING 75
SWIDTH 700 0
DWIDTH 10 0
BBX 10 11 0 0
BITMAP
E180
4100
4200
4400
4800
5800
6400
4200
4100
4080
E1C0
ENDCHAR

STARTCHAR L
ENCODING 76
SWIDTH 600 0
DWIDTH 9 0
BBX 7 11 1 0
BITMAP
E0
40
40
40
40
40
40
40
40
42
FE
ENDCHAR

STARTCHAR M
ENCODING 77
SWIDTH 860 0
DWIDTH 12 0
BBX 12 11 0 0
BITMAP
C030
6060
6060
50A0
50A0
4920
4920
4920
4620
4620
E070
ENDCHAR

STARTCHAR N
ENCODING 78
SWIDTH 740 0
DWIDTH 10 0
BBX 10 11 0 0
BITMAP
E1C0
5080
5080
4880
4880
4480
4480
4280
4280
4180
E180
ENDCHAR

STARTCHAR O
ENCODING 79
SWIDTH 800 0
DWIDTH 11 0
BBX 9 11 1 0
BITMAP
1C00
6300
4100
C180
8080
8080
8080
C180
4100
6300
1C00
ENDCHAR

STARTCHAR P
ENCODING 80
SWIDTH 620 0
DWIDTH 9 0
BBX 8 11 0 0
BITMAP
FE
43
41
41
43
7E
40
40
40
40
E0
ENDCHAR

STARTCHAR Q
ENCODING 81
SWIDTH 800 0
DWIDTH 11 0
BBX 9 12 1 -1
BITMAP
1C00
6300
4100
C180
8080
8080
8080
C980
4900
6700
1C00
0380
ENDCHAR

STARTCHAR R
ENCODING 82
SWIDTH 680 0
DWIDTH 9 0
BBX 9 11 0 0
BITMAP
FE00
4300
4100
4100
4300
7E00
4400
4200
4200
4100
E380
ENDCHAR

STARTCHAR S
ENCODING 83
SWIDTH 600 0
DWIDTH 9 0
BBX 7 11 1 0
BITMAP
3C
46
82
C0
70
1C
06
02
82
C4
78
ENDCHAR

STARTCHAR T
ENCODING 84
SWIDTH 640 0
DWIDTH 9 0
BBX 9 11 0 0
BITMAP
FF80
8880
0800
0800
0800
0800
0800
0800
0800
0800
1C00
ENDCHAR

STARTCHAR U
ENCODING 85
SWIDTH 760 0
DWIDTH 10 0
BBX 10 11 0 0
BITMAP
E1C0
4080
4080
4080
4080
4080
4080
4080
4080
2100
1E00
ENDCHAR

STARTCHAR V
ENCODING 86
SWIDTH 700 0
DWIDTH 11 0
BBX 11 11 0 0
BITMAP
E0E0
4040
6040
2080
2080
3080
1100
1900
0A00
0E00
0400
ENDCHAR

STARTCHAR W
ENCODING 87
SWIDTH 940 0
DWIDTH 15 0
BBX 15 11 0 0
BITMAP
E38E
4104
4384
6288
2288
2288
34D0
1450
1450
1860
0820
ENDCHAR

STARTCHAR X
ENCODING 88
SWIDTH 700 0
DWIDTH 10 0
BBX 10 11 0 0
BITMAP
E1C0
4080
6100
3200
1C00
0C00
0E00
1300
2180
4080
E1C0
ENDCHAR

STARTCHAR Y
ENCODING 89
SWIDTH 700 0
DWIDTH 11 0
BBX 11 11 0 0
BITMAP
E0E0
4040
6080
3080
1100
1900
0E00
0400
0400
0400
0E00
ENDCHAR

STARTCHAR Z
ENCODING 90
SWIDTH 580 0
DWIDTH 7 0
BBX 7 11 0 0
BITMAP
FE
82
04
0C
18
30
20
60
C0
82
FE
ENDCHAR

STARTCHAR bracketleft
ENCODING 91
SWIDTH 240 0
DWIDTH 4 0
BBX 3 14 0 -3
BITMAP
E0
80
80
80
80
80
80
80
80
80
80
80
80
E0
ENDCHAR

STARTCHAR backslash
ENCODING 92
SWIDTH 600 0
DWIDTH 9 0
BBX 5 11 2 0
BITMAP
80
80
40
40
20
20
20
10
10
08
08
ENDCHAR

STARTCHAR bracketright
ENCODING 93
SWIDTH 240 0
DWIDTH 4 0
BBX 3 14 1 -3
BITMAP
E0
20
20
20
20
20
20
20
20
20
20
20
20
E0
ENDCHAR

STARTCHAR asciicircum
ENCODING 94
SWIDTH 660 0
DWIDTH 9 0
BBX 5 6 2 5
BITMAP
20
20
50
50
88
88
ENDCHAR

STARTCHAR underscore
ENCODING 95
SWIDTH 500 0
DWIDTH 7 0
BBX 7 1 0 -3
BITMAP
FE
ENDCHAR

STARTCHAR quoteleft
ENCODING 96
SWIDTH 280 0
DWIDTH 4 0
BBX 2 3 1 8
BITMAP
40
80
C0
ENDCHAR

STARTCHAR a
ENCODING 97
SWIDTH 500 0
DWIDTH 7 0
BBX 6 7 1 0
BITMAP
70
88
08
78
88
88
74
ENDCHAR

STARTCHAR b
ENCODING 98
SWIDTH 520 0
DWIDTH 8 0
BBX 7 11 0 0
BITMAP
C0
40
40
40
5C
62
42
42
42
42
3C
ENDCHAR

STARTCHAR c
ENCODING 99
SWIDTH 460 0
DWIDTH 7 0
BBX 5 7 1 0
BITMAP
70
88
80
80
80
88
70
ENDCHAR

STARTCHAR d
ENCODING 100
SWIDTH 520 0
DWIDTH 8 0
BBX 7 11 1 0
BITMAP
0C
04
04
04
74
8C
84
84
84
8C
76
ENDCHAR

STARTCHAR e
ENCODING 101
SWIDTH 500 0
DWIDTH 7 0
BBX 5 7 1 0
BITMAP
70
88
88
F0
80
88
70
ENDCHAR

STARTCHAR f
ENCODING 102
SWIDTH 300 0
DWIDTH 5 0
BBX 4 11 1 0
BITMAP
30
50
40
40
E0
40
40
40
40
40
E0
ENDCHAR

STARTCHAR g
ENCODING 103
SWIDTH 520 0
DWIDTH 8 0
BBX 6 10 1 -3
BITMAP
3C
48
84
84
84
48
38
04
84
78
ENDCHAR

STARTCHAR h
ENCODING 104
SWIDTH 560 0
DWIDTH 8 0
BBX 8 11 0 0
BITMAP
C0
40
40
40
5C
62
42
42
42
42
E7
ENDCHAR

STARTCHAR i
ENCODING 105
SWIDTH 240 0
DWIDTH 3 0
BBX 3 10 0 0
BITMAP
40
40
00
C0
40
40
40
40
40
E0
ENDCHAR

STARTCHAR j
ENCODING 106
SWIDTH 220 0
DWIDTH 3 0
BBX 3 13 -1 -3
BITMAP
20
20
00
60
20
20
20
20
20
20
20
20
C0
ENDCHAR

STARTCHAR k
ENCODING 107
SWIDTH 500 0
DWIDTH 7 0
BBX 7 11 0 0
BITMAP
C0
40
40
40
4C
48
50
70
48
44
E6
ENDCHAR

STARTCHAR l
ENCODING 108
SWIDTH 220 0
DWIDTH 3 0
BBX 3 11 0 0
BITMAP
C0
40
40
40
40
40
40
40
40
40
E0
ENDCHAR

STARTCHAR m
ENCODING 109
SWIDTH 840 0
DWIDTH 11 0
BBX 11 7 0 0
BITMAP
D980
6640
4440
4440
4440
4440
EEE0
ENDCHAR

STARTCHAR n
ENCODING 110
SWIDTH 560 0
DWIDTH 8 0
BBX 8 7 0 0
BITMAP
DC
62
42
42
42
42
E7
ENDCHAR

STARTCHAR o
ENCODING 111
SWIDTH 560 0
DWIDTH 8 0
BBX 6 7 1 0
BITMAP
78
84
84
84
84
84
78
ENDCHAR

STARTCHAR p
ENCODING 112
SWIDTH 580 0
DWIDTH 8 0
BBX 7 10 0 -3
BITMAP
DC
62
42
42
42
62
5C
40
40
E0
ENDCHAR

STARTCHAR q
ENCODING 113
SWIDTH 520 0
DWIDTH 8 0
BBX 7 10 1 -3
BITMAP
74
CC
84
84
84
CC
74
04
04
0E
ENDCHAR

STARTCHAR r
ENCODING 114
SWIDTH 360 0
DWIDTH 5 0
BBX 5 7 0 0
BITMAP
D8
60
40
40
40
40
E0
ENDCHAR

STARTCHAR s
ENCODING 115
SWIDTH 400 0
DWIDTH 7 0
BBX 5 7 1 0
BITMAP
78
88
80
70
08
88
F0
ENDCHAR

STARTCHAR t
ENCODING 116
SWIDTH 300 0
DWIDTH 4 0
BBX 4 10 0 0
BITMAP
40
40
40
E0
40
40
40
40
40
70
ENDCHAR

STARTCHAR u
ENCODING 117
SWIDTH 520 0
DWIDTH 8 0
BBX 7 7 0 0
BITMAP
C6
42
42
42
42
46
3A
ENDCHAR

STARTCHAR v
ENCODING 118
SWIDTH 460 0
DWIDTH 8 0
BBX 8 7 0 0
BITMAP
E7
42
42
24
24
18
18
ENDCHAR

STARTCHAR w
ENCODING 119
SWIDTH 720 0
DWIDTH 11 0
BBX 11 7 0 0
BITMAP
EEE0
4440
2480
2480
2A80
1100
1100
ENDCHAR

STARTCHAR x
ENCODING 120
SWIDTH 500 0
DWIDTH 7 0
BBX 7 7 0 0
BITMAP
C6
44
28
10
28
44
C6
ENDCHAR

STARTCHAR y
ENCODING 121
SWIDTH 480 0
DWIDTH 8 0
BBX 8 10 0 -3
BITMAP
E7
42
42
24
24
18
18
10
20
60
ENDCHAR

STARTCHAR z
ENCODING 122
SWIDTH 420 0
DWIDTH 6 0
BBX 5 7 1 0
BITMAP
F8
88
10
20
40
88
F8
ENDCHAR

STARTCHAR braceleft
ENCODING 123
SWIDTH 300 0
DWIDTH 5 0
BBX 5 14 0 -3
BITMAP
18
20
20
20
20
40
80
40
20
20
20
20
20
18
ENDCHAR

STARTCHAR bar
ENCODING 124
SWIDTH 660 0
DWIDTH 5 0
BBX 1 11 2 0
BITMAP
80
80
80
80
80
80
80
80
80
80
80
ENDCHAR

STARTCHAR braceright
ENCODING 125
SWIDTH 300 0
DWIDTH 5 0
BBX 5 14 0 -3
BITMAP
C0
20
20
20
20
10
08
10
20
20
20
20
20
C0
ENDCHAR

STARTCHAR asciitilde
ENCODING 126
SWIDTH 660 0
DWIDTH 9 0
BBX 7 3 1 3
BITMAP
62
92
8C
ENDCHAR

STARTCHAR space
ENCODING 160
SWIDTH 300 0
DWIDTH 5 0
BBX 1 1 0 0
BITMAP
00
ENDCHAR

STARTCHAR exclamdown
ENCODING 161
SWIDTH 300 0
DWIDTH 4 0
BBX 1 11 1 -3
BITMAP
80
80
00
80
80
80
80
80
80
80
80
ENDCHAR

STARTCHAR cent
ENCODING 162
SWIDTH 600 0
DWIDTH 9 0
BBX 6 11 1 0
BITMAP
10
10
38
54
90
90
90
54
38
10
10
ENDCHAR

STARTCHAR sterling
ENCODING 163
SWIDTH 600 0
DWIDTH 9 0
BBX 7 11 1 0
BITMAP
38
44
44
40
20
F8
20
20
42
66
DC
ENDCHAR

STARTCHAR currency
ENCODING 164
SWIDTH 600 0
DWIDTH 9 0
BBX 7 7 1 2
BITMAP
82
7C
44
44
44
7C
82
ENDCHAR

STARTCHAR yen
ENCODING 165
SWIDTH 600 0
DWIDTH 9 0
BBX 7 11 1 0
BITMAP
82
82
82
44
44
28
FE
10
FE
10
10
ENDCHAR

STARTCHAR brokenbar
ENCODING 166
SWIDTH 660 0
DWIDTH 5 0
BBX 1 11 2 0
BITMAP
80
80
80
80
00
00
00
80
80
80
80
ENDCHAR

STARTCHAR section
ENCODING 167
SWIDTH 520 0
DWIDTH 8 0
BBX 6 14 1 -3
BITMAP
78
8C
84
C0
70
98
8C
C4
74
18
0C
84
C4
78
ENDCHAR

STARTCHAR dieresis
ENCODING 168
SWIDTH 460 0
DWIDTH 7 0
BBX 3 1 2 8
BITMAP
A0
ENDCHAR

STARTCHAR copyright
ENCODING 169
SWIDTH 840 0
DWIDTH 12 0
BBX 10 10 1 0
BITMAP
1E00
6180
4C80
9240
9040
9040
9240
4C80
6180
1E00
ENDCHAR

STARTCHAR ordfeminine
ENCODING 170
SWIDTH 400 0
DWIDTH 6 0
BBX 4 7 1 4
BITMAP
E0
10
70
90
D0
00
F0
ENDCHAR

STARTCHAR guillemotleft
ENCODING 171
SWIDTH 340 0
DWIDTH 6 0
BBX 6 5 0 2
BITMAP
24
48
90
48
24
ENDCHAR

STARTCHAR logicalnot
ENCODING 172
SWIDTH 660 0
DWIDTH 9 0
BBX 7 4 1 2
BITMAP
FE
02
02
02
ENDCHAR

STARTCHAR hyphen
ENCODING 173
SWIDTH 300 0
DWIDTH 4 0
BBX 4 1 0 4
BITMAP
F0
ENDCHAR

STARTCHAR registered
ENCODING 174
SWIDTH 800 0
DWIDTH 12 0
BBX 10 10 1 0
BITMAP
1E00
6180
5C80
9240
9240
9E40
9440
5280
6180
1E00
ENDCHAR

STARTCHAR macron
ENCODING 175
SWIDTH 380 0
DWIDTH 6 0
BBX 4 1 1 8
BITMAP
F0
ENDCHAR

STARTCHAR degree
ENCODING 176
SWIDTH 400 0
DWIDTH 6 0
BBX 4 4 1 7
BITMAP
60
90
90
60
ENDCHAR

STARTCHAR plusminus
ENCODING 177
SWIDTH 660 0
DWIDTH 9 0
BBX 7 7 1 1
BITMAP
10
10
FE
10
10
00
FE
ENDCHAR

STARTCHAR twosuperior
ENCODING 178
SWIDTH 360 0
DWIDTH 5 0
BBX 4 6 0 5
BITMAP
60
90
10
20
40
F0
ENDCHAR

STARTCHAR threesuperior
ENCODING 179
SWIDTH 360 0
DWIDTH 5 0
BBX 4 6 0 5
BITMAP
60
90
20
10
90
60
ENDCHAR

STARTCHAR acute
ENCODING 180
SWIDTH 320 0
DWIDTH 5 0
BBX 2 2 2 8
BITMAP
40
80
ENDCHAR

STARTCHAR mu
ENCODING 181
SWIDTH 520 0
DWIDTH 8 0
BBX 7 10 0 -3
BITMAP
C6
42
42
42
42
46
7A
40
40
40
ENDCHAR

STARTCHAR paragraph
ENCODING 182
SWIDTH 720 0
DWIDTH 11 0
BBX 9 14 1 -3
BITMAP
3F80
6500
C500
C500
C500
C500
6500
1D00
0500
0500
0500
0500
0500
0500
ENDCHAR

STARTCHAR periodcentered
ENCODING 183
SWIDTH 300 0
DWIDTH 5 0
BBX 1 2 2 3
BITMAP
80
80
ENDCHAR

STARTCHAR cedilla
ENCODING 184
SWIDTH 300 0
DWIDTH 4 0
BBX 3 3 0 -3
BITMAP
40
20
C0
ENDCHAR

STARTCHAR onesuperior
ENCODING 185
SWIDTH 360 0
DWIDTH 5 0
BBX 3 6 1 5
BITMAP
40
C0
40
40
40
E0
ENDCHAR

STARTCHAR ordmasculine
ENCODING 186
SWIDTH 400 0
DWIDTH 6 0
BBX 4 7 1 4
BITMAP
60
90
90
90
60
00
F0
ENDCHAR

STARTCHAR guillemotright
ENCODING 187
SWIDTH 340 0
DWIDTH 6 0
BBX 6 5 0 2
BITMAP
90
48
24
48
90
ENDCHAR

STARTCHAR onequarter
ENCODING 188
SWIDTH 900 0
DWIDTH 13 0
BBX 10 11 2 0
BITMAP
4200
C200
4400
4400
4800
E880
0980
1280
1480
27C0
2080
ENDCHAR

STARTCHAR onehalf
ENCODING 189
SWIDTH 900 0
DWIDTH 13 0
BBX 10 11 2 0
BITMAP
4200
C200
4400
4400
4800
E980
0A40
1040
1080
2100
23C0
ENDCHAR

STARTCHAR threequarters
ENCODING 190
SWIDTH 900 0
DWIDTH 13 0
BBX 11 11 1 0
BITMAP
6100
9100
2200
1200
9400
6440
04C0
0940
0A40
13E0
1040
ENDCHAR

STARTCHAR questiondown
ENCODING 191
SWIDTH 460 0
DWIDTH 7 0
BBX 6 11 1 -3
BITMAP
10
10
00
10
30
60
C0
80
84
84
78
ENDCHAR

STARTCHAR Agrave
ENCODING 192
SWIDTH 720 0
DWIDTH 11 0
BBX 11 14 0 0
BITMAP
0800
0400
0000
0400
0E00
0A00
1300
1100
2180
2080
3F80
40C0
4040
E0E0
ENDCHAR

STARTCHAR Aacute
ENCODING 193
SWIDTH 720 0
DWIDTH 11 0
BBX 11 14 0 0
BITMAP
0200
0400
0000
0400
0E00
0A00
1300
1100
2180
2080
3F80
40C0
4040
E0E0
ENDCHAR

STARTCHAR Acircumflex
ENCODING 194
SWIDTH 720 0
DWIDTH 11 0
BBX 11 14 0 0
BITMAP
0400
0A00
0000
0400
0E00
0A00
1300
1100
2180
2080
3F80
40C0
4040
E0E0
ENDCHAR

STARTCHAR Atilde
ENCODING 195
SWIDTH 720 0
DWIDTH 11 0
BBX 11 14 0 0
BITMAP
0D00
1600
0000
0400
0E00
0A00
1300
1100
2180
2080
3F80
40C0
4040
E0E0
ENDCHAR

STARTCHAR Adieresis
ENCODING 196
SWIDTH 720 0
DWIDTH 11 0
BBX 11 14 0 0
BITMAP
0A00
0A00
0000
0400
0E00
0A00
1300
1100
2180
2080
3F80
40C0
4040
E0E0
ENDCHAR

STARTCHAR Aring
ENCODING 197
SWIDTH 720 0
DWIDTH 11 0
BBX 11 14 0 0
BITMAP
0C00
1200
0C00
0400
0E00
0A00
1300
1100
2180
2080
3F80
40C0
4040
E0E0
ENDCHAR

STARTCHAR AE
ENCODING 198
SWIDTH 960 0
DWIDTH 14 0
BBX 13 11 0 0
BITMAP
07F8
0E08
0A00
1200
1200
23F0
2200
3E00
4200
4208
E3F8
ENDCHAR

STARTCHAR Ccedilla
ENCODING 199
SWIDTH 720 0
DWIDTH 10 0
BBX 8 14 1 -3
BITMAP
1C
63
41
80
80
80
80
80
41
63
1C
08
04
18
ENDCHAR

STARTCHAR Egrave
ENCODING 200
SWIDTH 600 0
DWIDTH 9 0
BBX 8 14 0 0
BITMAP
10
08
00
FF
41
40
40
40
7E
40
40
40
41
FF
ENDCHAR

STARTCHAR Eacute
ENCODING 201
SWIDTH 600 0
DWIDTH 9 0
BBX 8 14 0 0
BITMAP
04
08
00
FF
41
40
40
40
7E
40
40
40
41
FF
ENDCHAR

STARTCHAR Ecircumflex
ENCODING 202
SWIDTH 600 0
DWIDTH 9 0
BBX 8 14 0 0
BITMAP
08
14
00
FF
41
40
40
40
7E
40
40
40
41
FF
ENDCHAR

STARTCHAR Edieresis
ENCODING 203
SWIDTH 600 0
DWIDTH 9 0
BBX 8 14 0 0
BITMAP
14
14
00
FF
41
40
40
40
7E
40
40
40
41
FF
ENDCHAR

STARTCHAR Igrave
ENCODING 204
SWIDTH 260 0
DWIDTH 5 0
BBX 3 14 1 0
BITMAP
80
40
00
E0
40
40
40
40
40
40
40
40
40
E0
ENDCHAR

STARTCHAR Iacute
ENCODING 205
SWIDTH 260 0
DWIDTH 5 0
BBX 3 14 1 0
BITMAP
20
40
00
E0
40
40
40
40
40
40
40
40
40
E0
ENDCHAR

STARTCHAR Icircumflex
ENCODING 206
SWIDTH 260 0
DWIDTH 5 0
BBX 3 14 1 0
BITMAP
40
A0
00
E0
40
40
40
40
40
40
40
40
40
E0
ENDCHAR

STARTCHAR Idieresis
ENCODING 207
SWIDTH 260 0
DWIDTH 5 0
BBX 3 14 1 0
BITMAP
A0
A0
00
E0
40
40
40
40
40
40
40
40
40
E0
ENDCHAR

STARTCHAR Eth
ENCODING 208
SWIDTH 740 0
DWIDTH 10 0
BBX 9 11 0 0
BITMAP
7C00
4300
4100
4080
4080
F080
4080
4080
4100
4300
7C00
ENDCHAR

STARTCHAR Ntilde
ENCODING 209
SWIDTH 740 0
DWIDTH 10 0
BBX 10 14 0 0
BITMAP
0D00
1600
0000
E1C0
5080
5080
4880
4880
4480
4480
4280
4280
4180
E180
ENDCHAR

STARTCHAR Ograve
ENCODING 210
SWIDTH 800 0
DWIDTH 11 0
BBX 9 14 1 0
BITMAP
1000
0800
0000
1C00
6300
4100
C180
8080
8080
8080
C180
4100
6300
1C00
ENDCHAR

STARTCHAR Oacute
ENCODING 211
SWIDTH 800 0
DWIDTH 11 0
BBX 9 14 1 0
BITMAP
0400
0800
0000
1C00
6300
4100
C180
8080
8080
8080
C180
4100
6300
1C00
ENDCHAR

STARTCHAR Ocircumflex
ENCODING 212
SWIDTH 800 0
DWIDTH 11 0
BBX 9 14 1 0
BITMAP
0800
1400
0000
1C00
6300
4100
C180
8080
8080
8080
C180
4100
6300
1C00
ENDCHAR

STARTCHAR Otilde
ENCODING 213
SWIDTH 800 0
DWIDTH 11 0
BBX 9 14 1 0
BITMAP
1A00
2C00
0000
1C00
6300
4100
C180
8080
8080
8080
C180
4100
6300
1C00
ENDCHAR

STARTCHAR Odieresis
ENCODING 214
SWIDTH 800 0
DWIDTH 11 0
BBX 9 14 1 0
BITMAP
1400
1400
0000
1C00
6300
4100
C180
8080
8080
8080
C180
4100
6300
1C00
ENDCHAR

STARTCHAR multiply
ENCODING 215
SWIDTH 660 0
DWIDTH 9 0
BBX 7 7 1 1
BITMAP
82
44
28
10
28
44
82
ENDCHAR

STARTCHAR Oslash
ENCODING 216
SWIDTH 800 0
DWIDTH 11 0
BBX 11 11 0 0
BITMAP
0E20
31C0
2080
61C0
4240
4440
4840
70C0
2080
7180
8E00
ENDCHAR

STARTCHAR Ugrave
ENCODING 217
SWIDTH 760 0
DWIDTH 10 0
BBX 10 14 0 0
BITMAP
0800
0400
0000
E1C0
4080
4080
4080
4080
4080
4080
4080
4080
2100
1E00
ENDCHAR

STARTCHAR Uacute
ENCODING 218
SWIDTH 760 0
DWIDTH 10 0
BBX 10 14 0 0
BITMAP
0200
0400
0000
E1C0
4080
4080
4080
4080
4080
4080
4080
4080
2100
1E00
ENDCHAR

STARTCHAR Ucircumflex
ENCODING 219
SWIDTH 760 0
DWIDTH 10 0
BBX 10 14 0 0
BITMAP
0400
0A00
0000
E1C0
4080
4080
4080
4080
4080
4080
4080
4080
2100
1E00
ENDCHAR

STARTCHAR Udieresis
ENCODING 220
SWIDTH 760 0
DWIDTH 10 0
BBX 10 14 0 0
BITMAP
1400
1400
0000
E1C0
4080
4080
4080
4080
4080
4080
4080
4080
2100
1E00
ENDCHAR

STARTCHAR Yacute
ENCODING 221
SWIDTH 700 0
DWIDTH 11 0
BBX 11 14 0 0
BITMAP
0200
0400
0000
E0E0
4040
6080
3080
1100
1900
0E00
0400
0400
0400
0E00
ENDCHAR

STARTCHAR Thorn
ENCODING 222
SWIDTH 620 0
DWIDTH 9 0
BBX 8 11 0 0
BITMAP
E0
40
7E
43
41
41
43
7E
40
40
E0
ENDCHAR

STARTCHAR germandbls
ENCODING 223
SWIDTH 520 0
DWIDTH 7 0
BBX 6 11 0 0
BITMAP
38
44
44
44
48
58
44
44
44
44
D8
ENDCHAR

STARTCHAR agrave
ENCODING 224
SWIDTH 500 0
DWIDTH 7 0
BBX 6 10 1 0
BITMAP
40
20
00
70
88
08
78
88
88
74
ENDCHAR

STARTCHAR aacute
ENCODING 225
SWIDTH 500 0
DWIDTH 7 0
BBX 6 10 1 0
BITMAP
10
20
00
70
88
08
78
88
88
74
ENDCHAR

STARTCHAR acircumflex
ENCODING 226
SWIDTH 500 0
DWIDTH 7 0
BBX 6 10 1 0
BITMAP
20
50
00
70
88
08
78
88
88
74
ENDCHAR

STARTCHAR atilde
ENCODING 227
SWIDTH 500 0
DWIDTH 7 0
BBX 6 10 1 0
BITMAP
68
B0
00
70
88
08
78
88
88
74
ENDCHAR

STARTCHAR adieresis
ENCODING 228
SWIDTH 500 0
DWIDTH 7 0
BBX 6 10 1 0
BITMAP
50
50
00
70
88
08
78
88
88
74
ENDCHAR

STARTCHAR aring
ENCODING 229
SWIDTH 500 0
DWIDTH 7 0
BBX 6 11 1 0
BITMAP
30
48
30
00
70
88
08
78
88
88
74
ENDCHAR

STARTCHAR ae
ENCODING 230
SWIDTH 800 0
DWIDTH 12 0
BBX 10 7 1 0
BITMAP
7780
8C40
0840
7F80
8800
8C40
7780
ENDCHAR

STARTCHAR ccedilla
ENCODING 231
SWIDTH 460 0
DWIDTH 7 0
BBX 5 10 1 -3
BITMAP
70
88
80
80
80
88
70
20
10
60
ENDCHAR

STARTCHAR egrave
ENCODING 232
SWIDTH 500 0
DWIDTH 7 0
BBX 5 10 1 0
BITMAP
40
20
00
70
88
88
F0
80
88
70
ENDCHAR

STARTCHAR eacute
ENCODING 233
SWIDTH 500 0
DWIDTH 7 0
BBX 5 10 1 0
BITMAP
10
20
00
70
88
88
F0
80
88
70
ENDCHAR

STARTCHAR ecircumflex
ENCODING 234
SWIDTH 500 0
DWIDTH 7 0
BBX 5 10 1 0
BITMAP
20
50
00
70
88
88
F0
80
88
70
ENDCHAR

STARTCHAR edieresis
ENCODING 235
SWIDTH 500 0
DWIDTH 7 0
BBX 5 10 1 0
BITMAP
50
50
00
70
88
88
F0
80
88
70
ENDCHAR

STARTCHAR igrave
ENCODING 236
SWIDTH 240 0
DWIDTH 3 0
BBX 3 10 0 0
BITMAP
80
40
00
C0
40
40
40
40
40
E0
ENDCHAR

STARTCHAR iacute
ENCODING 237
SWIDTH 240 0
DWIDTH 3 0
BBX 3 10 0 0
BITMAP
20
40
00
C0
40
40
40
40
40
E0
ENDCHAR

STARTCHAR icircumflex
ENCODING 238
SWIDTH 240 0
DWIDTH 3 0
BBX 3 10 0 0
BITMAP
40
A0
00
C0
40
40
40
40
40
E0
ENDCHAR

STARTCHAR idieresis
ENCODING 239
SWIDTH 240 0
DWIDTH 3 0
BBX 3 10 0 0
BITMAP
A0
A0
00
C0
40
40
40
40
40
E0
ENDCHAR

STARTCHAR eth
ENCODING 240
SWIDTH 570 0
DWIDTH 8 0
BBX 6 11 1 0
BITMAP
C8
30
50
08
7C
84
84
84
84
84
78
ENDCHAR

STARTCHAR ntilde
ENCODING 241
SWIDTH 560 0
DWIDTH 8 0
BBX 8 10 0 0
BITMAP
1A
2C
00
DC
62
42
42
42
42
E7
ENDCHAR

STARTCHAR ograve
ENCODING 242
SWIDTH 560 0
DWIDTH 8 0
BBX 6 10 1 0
BITMAP
20
10
00
78
84
84
84
84
84
78
ENDCHAR

STARTCHAR oacute
ENCODING 243
SWIDTH 560 0
DWIDTH 8 0
BBX 6 10 1 0
BITMAP
08
10
00
78
84
84
84
84
84
78
ENDCHAR

STARTCHAR ocircumflex
ENCODING 244
SWIDTH 560 0
DWIDTH 8 0
BBX 6 10 1 0
BITMAP
10
28
00
78
84
84
84
84
84
78
ENDCHAR

STARTCHAR otilde
ENCODING 245
SWIDTH 560 0
DWIDTH 8 0
BBX 6 10 1 0
BITMAP
34
58
00
78
84
84
84
84
84
78
ENDCHAR

STARTCHAR odieresis
ENCODING 246
SWIDTH 560 0
DWIDTH 8 0
BBX 6 10 1 0
BITMAP
28
28
00
78
84
84
84
84
84
78
ENDCHAR

STARTCHAR divide
ENCODING 247
SWIDTH 660 0
DWIDTH 9 0
BBX 7 7 1 1
BITMAP
10
10
00
FE
00
10
10
ENDCHAR

STARTCHAR oslash
ENCODING 248
SWIDTH 560 0
DWIDTH 8 0
BBX 8 8 0 0
BITMAP
01
3E
46
4A
52
62
42
BC
ENDCHAR

STARTCHAR ugrave
ENCODING 249
SWIDTH 520 0
DWIDTH 8 0
BBX 7 10 0 0
BITMAP
10
08
00
C6
42
42
42
42
46
3A
ENDCHAR

STARTCHAR uacute
ENCODING 250
SWIDTH 520 0
DWIDTH 8 0
BBX 7 10 0 0
BITMAP
08
10
00
C6
42
42
42
42
46
3A
ENDCHAR

STARTCHAR ucircumflex
ENCODING 251
SWIDTH 520 0
DWIDTH 8 0
BBX 7 10 0 0
BITMAP
10
28
00
C6
42
42
42
42
46
3A
ENDCHAR

STARTCHAR udieresis
ENCODING 252
SWIDTH 520 0
DWIDTH 8 0
BBX 7 10 0 0
BITMAP
28
28
00
C6
42
42
42
42
46
3A
ENDCHAR

STARTCHAR yacute
ENCODING 253
SWIDTH 480 0
DWIDTH 8 0
BBX 8 13 0 -3
BITMAP
04
08
00
E7
42
42
24
24
18
18
10
20
60
ENDCHAR

STARTCHAR thorn
ENCODING 254
SWIDTH 580 0
DWIDTH 8 0
BBX 7 14 0 -3
BITMAP
C0
40
40
40
5C
62
42
42
42
62
5C
40
40
E0
ENDCHAR

STARTCHAR ydieresis
ENCODING 255
SWIDTH 480 0
DWIDTH 8 0
BBX 8 13 0 -3
BITMAP
14
14
00
E7
42
42
24
24
18
18
10
20
60
ENDCHAR
ENDFONT
